<svg width="33" height="32" viewBox="0 0 33 32" fill="none" xmlns="http://www.w3.org/2000/svg">
<rect x="0.140625" width="32" height="32" rx="16" fill="black" fill-opacity="0.2"/>
<path d="M17.5385 16.2667L21.7729 12.0323C22.0857 11.7203 22.0857 11.2131 21.7729 10.9011C21.4601 10.5883 20.9545 10.5883 20.6417 10.9011L16.4073 15.1355L12.1729 10.9011C11.8601 10.5883 11.3545 10.5883 11.0417 10.9011C10.7289 11.2131 10.7289 11.7203 11.0417 12.0323L15.2761 16.2667L11.0417 20.5011C10.7289 20.8131 10.7289 21.3203 11.0417 21.6323C11.1977 21.7883 11.4025 21.8667 11.6073 21.8667C11.8121 21.8667 12.0169 21.7883 12.1729 21.6323L16.4073 17.3979L20.6417 21.6323C20.7977 21.7883 21.0025 21.8667 21.2073 21.8667C21.4121 21.8667 21.6169 21.7883 21.7729 21.6323C22.0857 21.3203 22.0857 20.8131 21.7729 20.5011L17.5385 16.2667Z" fill="white"/>
</svg>
