<svg width="32" height="33" viewBox="0 0 32 33" fill="none" xmlns="http://www.w3.org/2000/svg">
<path d="M29.3334 16.3057C29.3334 17.0417 28.7374 17.639 28.0001 17.639H7.21885L14.2761 24.6963C14.7975 25.2177 14.7975 26.0604 14.2761 26.5818C14.0161 26.8418 13.6748 26.9724 13.3334 26.9724C12.9921 26.9724 12.6507 26.8418 12.3907 26.5818L3.05869 17.2497C2.93469 17.1257 2.8373 16.9792 2.7693 16.8152C2.63464 16.4898 2.63464 16.1216 2.7693 15.7963C2.8373 15.6323 2.93469 15.4857 3.05869 15.3617L12.3907 6.02967C12.9121 5.50834 13.7548 5.50834 14.2761 6.02967C14.7975 6.55101 14.7975 7.39376 14.2761 7.91509L7.21885 14.9724H28.0001C28.7374 14.9724 29.3334 15.5697 29.3334 16.3057Z" fill="white"/>
</svg>
