<svg width="32" height="33" viewBox="0 0 32 33" fill="none" xmlns="http://www.w3.org/2000/svg">
<path d="M28.9414 17.2497L19.6094 26.5818C19.3494 26.8418 19.008 26.9724 18.6667 26.9724C18.3254 26.9724 17.984 26.8418 17.724 26.5818C17.2026 26.0604 17.2026 25.2177 17.724 24.6963L24.7813 17.639H4.00002C3.26269 17.639 2.66669 17.0417 2.66669 16.3057C2.66669 15.5697 3.26269 14.9724 4.00002 14.9724H24.7813L17.724 7.91509C17.2026 7.39376 17.2026 6.55101 17.724 6.02967C18.2453 5.50834 19.0881 5.50834 19.6094 6.02967L28.9414 15.3617C29.0654 15.4857 29.1628 15.6323 29.2308 15.7963C29.3655 16.1216 29.3655 16.4898 29.2308 16.8152C29.1628 16.9792 29.0654 17.1257 28.9414 17.2497Z" fill="white"/>
</svg>
