<svg width="40" height="40" viewBox="0 0 40 40" fill="none" xmlns="http://www.w3.org/2000/svg">
<path d="M29.3833 5H10.6333C6.88334 5 5 6.86666 5 10.6167V29.3667C5 33.1167 6.88334 35 10.6333 35H29.3833C33.1333 35 35 33.1167 35 29.3667V10.6167C35 6.86666 33.1333 5 29.3833 5ZM25.8834 24.1166C26.3667 24.6 26.3667 25.4 25.8834 25.8834C25.6334 26.1334 25.3167 26.25 25 26.25C24.6833 26.25 24.3666 26.1334 24.1166 25.8834L20 21.7667L15.8834 25.8834C15.6334 26.1334 15.3167 26.25 15 26.25C14.6833 26.25 14.3666 26.1334 14.1166 25.8834C13.6333 25.4 13.6333 24.6 14.1166 24.1166L18.2333 20L14.1166 15.8834C13.6333 15.4 13.6333 14.6 14.1166 14.1166C14.6 13.6333 15.4 13.6333 15.8834 14.1166L20 18.2333L24.1166 14.1166C24.6 13.6333 25.4 13.6333 25.8834 14.1166C26.3667 14.6 26.3667 15.4 25.8834 15.8834L21.7667 20L25.8834 24.1166Z" fill="#555568"/>
</svg>
