<svg width="33" height="32" viewBox="0 0 33 32" fill="none" xmlns="http://www.w3.org/2000/svg">
<rect x="0.859375" width="32" height="32" rx="16" fill="black" fill-opacity="0.2"/>
<path d="M17.1421 11.4666C16.2589 11.4666 15.5381 10.7498 15.5381 9.8666C15.5381 8.9834 16.2501 8.2666 17.1341 8.2666H17.1421C18.0253 8.2666 18.7421 8.9834 18.7421 9.8666C18.7421 10.7498 18.0261 11.4666 17.1421 11.4666ZM18.7421 16.2666C18.7421 15.3834 18.0253 14.6666 17.1421 14.6666H17.1341C16.2509 14.6666 15.5381 15.3834 15.5381 16.2666C15.5381 17.1498 16.2581 17.8666 17.1421 17.8666C18.0261 17.8666 18.7421 17.1498 18.7421 16.2666ZM18.7421 22.6666C18.7421 21.7834 18.0253 21.0666 17.1421 21.0666H17.1341C16.2509 21.0666 15.5381 21.7834 15.5381 22.6666C15.5381 23.5498 16.2581 24.2666 17.1421 24.2666C18.0261 24.2666 18.7421 23.5498 18.7421 22.6666Z" fill="white"/>
</svg>
