<svg width="24" height="24" viewBox="0 0 24 24" fill="none" xmlns="http://www.w3.org/2000/svg">
<path d="M24 5.29412C23.1166 5.69559 22.1644 5.95941 21.1778 6.08559C22.1874 5.47765 22.9675 4.51412 23.3346 3.35559C22.3824 3.92912 21.327 4.33059 20.2141 4.56C19.3078 3.57353 18.0344 3 16.5889 3C13.8929 3 11.6902 5.20235 11.6902 7.92088C11.6902 8.31088 11.7361 8.68941 11.8164 9.045C7.73231 8.83853 4.0956 6.87706 1.67495 3.90618C1.25048 4.62882 1.00956 5.47765 1.00956 6.37235C1.00956 8.08147 1.86998 9.59559 3.20077 10.4559C2.38623 10.4559 1.62906 10.2265 0.963671 9.88235V9.91676C0.963671 12.3026 2.66157 14.2985 4.91013 14.7459C4.18822 14.9434 3.43032 14.9709 2.69599 14.8262C3.00758 15.804 3.61782 16.6596 4.44094 17.2728C5.26405 17.8859 6.25864 18.2257 7.2849 18.2444C5.54527 19.6214 3.38891 20.3657 1.17017 20.355C0.780115 20.355 0.390057 20.3321 0 20.2862C2.17973 21.6856 4.77247 22.5 7.54876 22.5C16.5889 22.5 21.5564 14.9982 21.5564 8.49441C21.5564 8.27647 21.5564 8.07 21.5449 7.85206C22.5086 7.16382 23.3346 6.29206 24 5.29412Z" fill="white"/>
</svg>
