<svg width="40" height="40" viewBox="0 0 40 40" fill="none" xmlns="http://www.w3.org/2000/svg">
<path opacity="0.25" d="M29.375 5H10.625C6.875 5 5 6.875 5 10.625V29.375C5 33.125 6.875 35 10.625 35H29.375C33.125 35 35 33.125 35 29.375V10.625C35 6.875 33.125 5 29.375 5Z" fill="#555568"/>
<path d="M26.6667 16.25H13.3334C12.6434 16.25 12.0834 15.69 12.0834 15C12.0834 14.31 12.6434 13.75 13.3334 13.75H26.6667C27.3567 13.75 27.9167 14.31 27.9167 15C27.9167 15.69 27.3567 16.25 26.6667 16.25ZM27.9167 20C27.9167 19.31 27.3567 18.75 26.6667 18.75H13.3334C12.6434 18.75 12.0834 19.31 12.0834 20C12.0834 20.69 12.6434 21.25 13.3334 21.25H26.6667C27.3567 21.25 27.9167 20.69 27.9167 20ZM27.9167 25C27.9167 24.31 27.3567 23.75 26.6667 23.75H20C19.31 23.75 18.75 24.31 18.75 25C18.75 25.69 19.31 26.25 20 26.25H26.6667C27.3567 26.25 27.9167 25.69 27.9167 25Z" fill="white"/>
</svg>
