<svg width="48" height="48" viewBox="0 0 48 48" fill="none" xmlns="http://www.w3.org/2000/svg">
<path opacity="0.25" d="M35.25 6H12.75C8.25 6 6 8.25 6 12.75V35.25C6 39.75 8.25 42 12.75 42H35.25C39.75 42 42 39.75 42 35.25V12.75C42 8.25 39.75 6 35.25 6Z" fill="#555568"/>
<path d="M32 19.5H16C15.172 19.5 14.5 18.828 14.5 18C14.5 17.172 15.172 16.5 16 16.5H32C32.828 16.5 33.5 17.172 33.5 18C33.5 18.828 32.828 19.5 32 19.5ZM33.5 24C33.5 23.172 32.828 22.5 32 22.5H16C15.172 22.5 14.5 23.172 14.5 24C14.5 24.828 15.172 25.5 16 25.5H32C32.828 25.5 33.5 24.828 33.5 24ZM33.5 30C33.5 29.172 32.828 28.5 32 28.5H24C23.172 28.5 22.5 29.172 22.5 30C22.5 30.828 23.172 31.5 24 31.5H32C32.828 31.5 33.5 30.828 33.5 30Z" fill="white"/>
</svg>
