<svg width="28" height="28" viewBox="0 0 28 28" fill="none" xmlns="http://www.w3.org/2000/svg">
<path d="M25.6667 12.3332H15.6667V2.33317C15.6667 1.41317 14.92 0.666504 14 0.666504C13.08 0.666504 12.3334 1.41317 12.3334 2.33317V12.3332H2.33335C1.41335 12.3332 0.666687 13.0798 0.666687 13.9998C0.666687 14.9198 1.41335 15.6665 2.33335 15.6665H12.3334V25.6665C12.3334 26.5865 13.08 27.3332 14 27.3332C14.92 27.3332 15.6667 26.5865 15.6667 25.6665V15.6665H25.6667C26.5867 15.6665 27.3334 14.9198 27.3334 13.9998C27.3334 13.0798 26.5867 12.3332 25.6667 12.3332Z" fill="#282546"/>
</svg>
