<svg width="16" height="16" viewBox="0 0 16 16" fill="none" xmlns="http://www.w3.org/2000/svg">
<path d="M11 8C11 9.654 9.654 11 8 11C6.346 11 5 9.654 5 8C5 6.346 6.346 5 8 5C9.654 5 11 6.346 11 8ZM8.5 3.33333V2C8.5 1.724 8.276 1.5 8 1.5C7.724 1.5 7.5 1.724 7.5 2V3.33333C7.5 3.60933 7.724 3.83333 8 3.83333C8.276 3.83333 8.5 3.60933 8.5 3.33333ZM8.5 14V12.6667C8.5 12.3907 8.276 12.1667 8 12.1667C7.724 12.1667 7.5 12.3907 7.5 12.6667V14C7.5 14.276 7.724 14.5 8 14.5C8.276 14.5 8.5 14.276 8.5 14ZM3.83333 8C3.83333 7.724 3.60933 7.5 3.33333 7.5H2C1.724 7.5 1.5 7.724 1.5 8C1.5 8.276 1.724 8.5 2 8.5H3.33333C3.60933 8.5 3.83333 8.276 3.83333 8ZM14.5 8C14.5 7.724 14.276 7.5 14 7.5H12.6667C12.3907 7.5 12.1667 7.724 12.1667 8C12.1667 8.276 12.3907 8.5 12.6667 8.5H14C14.276 8.5 14.5 8.276 14.5 8ZM5.054 5.054C5.24933 4.85866 5.24933 4.54199 5.054 4.34666L4.11133 3.40399C3.91599 3.20866 3.59933 3.20866 3.40399 3.40399C3.20866 3.59933 3.20866 3.91599 3.40399 4.11133L4.34666 5.054C4.44399 5.15133 4.57199 5.20066 4.69999 5.20066C4.82799 5.20066 4.956 5.15133 5.054 5.054ZM12.596 12.596C12.7913 12.4007 12.7913 12.084 12.596 11.8887L11.6533 10.946C11.458 10.7507 11.1413 10.7507 10.946 10.946C10.7507 11.1413 10.7507 11.458 10.946 11.6533L11.8887 12.596C11.986 12.6933 12.114 12.7427 12.242 12.7427C12.37 12.7427 12.4987 12.694 12.596 12.596ZM4.11133 12.596L5.054 11.6533C5.24933 11.458 5.24933 11.1413 5.054 10.946C4.85866 10.7507 4.54199 10.7507 4.34666 10.946L3.40399 11.8887C3.20866 12.084 3.20866 12.4007 3.40399 12.596C3.50133 12.6933 3.62932 12.7427 3.75732 12.7427C3.88532 12.7427 4.01333 12.694 4.11133 12.596ZM11.6533 5.054L12.596 4.11133C12.7913 3.91599 12.7913 3.59933 12.596 3.40399C12.4007 3.20866 12.084 3.20866 11.8887 3.40399L10.946 4.34666C10.7507 4.54199 10.7507 4.85866 10.946 5.054C11.0433 5.15133 11.1713 5.20066 11.2993 5.20066C11.4273 5.20066 11.5553 5.15133 11.6533 5.054Z" fill="#393672"/>
</svg>
